<mxfile host="app.diagrams.net" modified="2023-02-07T13:13:58.430Z" agent="5.0 (Macintosh)" etag="ihMQrN2yEuhzeCVS_6fc" version="20.8.16" type="github">
  <diagram name="Страница 1" id="A61Z1URyp9uTyf3J01L-">
    <mxGraphModel dx="934" dy="579" grid="1" gridSize="10" guides="1" tooltips="1" connect="1" arrows="1" fold="1" page="1" pageScale="1" pageWidth="1169" pageHeight="827" math="0" shadow="0">
      <root>
        <mxCell id="0" />
        <mxCell id="1" parent="0" />
        <mxCell id="wjYkWfPembE_n0bAgflM-10" value="" style="group" parent="1" vertex="1" connectable="0">
          <mxGeometry x="10" y="10" width="1140" height="570" as="geometry" />
        </mxCell>
        <mxCell id="wjYkWfPembE_n0bAgflM-2" value="Входная лента символов" style="rounded=0;whiteSpace=wrap;html=1;strokeWidth=3;fontSize=25;" parent="wjYkWfPembE_n0bAgflM-10" vertex="1">
          <mxGeometry x="427.5" width="285" height="122.14285714285715" as="geometry" />
        </mxCell>
        <mxCell id="wjYkWfPembE_n0bAgflM-3" value="Генератор символом" style="rounded=0;whiteSpace=wrap;html=1;strokeWidth=3;fontSize=25;" parent="wjYkWfPembE_n0bAgflM-10" vertex="1">
          <mxGeometry x="427.5" y="223.92857142857144" width="285" height="122.14285714285715" as="geometry" />
        </mxCell>
        <mxCell id="wjYkWfPembE_n0bAgflM-1" value="" style="edgeStyle=orthogonalEdgeStyle;rounded=0;orthogonalLoop=1;jettySize=auto;html=1;strokeWidth=3;" parent="wjYkWfPembE_n0bAgflM-10" source="wjYkWfPembE_n0bAgflM-2" target="wjYkWfPembE_n0bAgflM-3" edge="1">
          <mxGeometry relative="1" as="geometry" />
        </mxCell>
        <mxCell id="wjYkWfPembE_n0bAgflM-4" style="edgeStyle=orthogonalEdgeStyle;rounded=0;orthogonalLoop=1;jettySize=auto;html=1;entryX=0;entryY=0.5;entryDx=0;entryDy=0;strokeWidth=3;" parent="wjYkWfPembE_n0bAgflM-10" source="wjYkWfPembE_n0bAgflM-5" target="wjYkWfPembE_n0bAgflM-3" edge="1">
          <mxGeometry relative="1" as="geometry" />
        </mxCell>
        <mxCell id="wjYkWfPembE_n0bAgflM-5" value="Преобразование utf-8 в символ utf-32" style="whiteSpace=wrap;html=1;rounded=0;strokeWidth=3;fontSize=25;" parent="wjYkWfPembE_n0bAgflM-10" vertex="1">
          <mxGeometry y="223.92857142857144" width="285" height="122.14285714285715" as="geometry" />
        </mxCell>
        <mxCell id="wjYkWfPembE_n0bAgflM-6" style="edgeStyle=orthogonalEdgeStyle;rounded=0;orthogonalLoop=1;jettySize=auto;html=1;entryX=0.5;entryY=1;entryDx=0;entryDy=0;strokeWidth=3;" parent="wjYkWfPembE_n0bAgflM-10" source="wjYkWfPembE_n0bAgflM-7" target="wjYkWfPembE_n0bAgflM-3" edge="1">
          <mxGeometry relative="1" as="geometry" />
        </mxCell>
        <mxCell id="wjYkWfPembE_n0bAgflM-7" value="Подсчет количества пробелов и символов табуляции" style="whiteSpace=wrap;html=1;rounded=0;strokeWidth=3;fontSize=25;" parent="wjYkWfPembE_n0bAgflM-10" vertex="1">
          <mxGeometry x="427.5" y="447.8571428571429" width="285" height="122.14285714285715" as="geometry" />
        </mxCell>
        <mxCell id="wjYkWfPembE_n0bAgflM-8" style="edgeStyle=orthogonalEdgeStyle;rounded=0;orthogonalLoop=1;jettySize=auto;html=1;entryX=1;entryY=0.5;entryDx=0;entryDy=0;strokeWidth=3;" parent="wjYkWfPembE_n0bAgflM-10" source="wjYkWfPembE_n0bAgflM-9" target="wjYkWfPembE_n0bAgflM-3" edge="1">
          <mxGeometry relative="1" as="geometry" />
        </mxCell>
        <mxCell id="wjYkWfPembE_n0bAgflM-9" value="Остлеживание позиации в файле" style="whiteSpace=wrap;html=1;rounded=0;strokeWidth=3;fontSize=25;" parent="wjYkWfPembE_n0bAgflM-10" vertex="1">
          <mxGeometry x="855" y="223.92857142857144" width="285" height="122.14285714285715" as="geometry" />
        </mxCell>
      </root>
    </mxGraphModel>
  </diagram>
</mxfile>
